<?xml version="1.0" encoding="utf-8"?>
<!-- Generator: Adobe Illustrator 25.4.1, SVG Export Plug-In . SVG Version: 6.00 Build 0)  -->
<svg version="1.1" id="Ebene_1" xmlns="http://www.w3.org/2000/svg" xmlns:xlink="http://www.w3.org/1999/xlink" x="0px" y="0px"
	 viewBox="0 0 1680.9 250" style="enable-background:new 0 0 1680.9 250;" xml:space="preserve">
<style type="text/css">
	.st0{fill:#00003E;}
	.st1{enable-background:new    ;}
	.st2{fill:#FFFFFF;}
	.st3{font-family:'AcherusMilitant3-Bold';}
	.st4{font-size:142px;}
</style>
<path class="st0" d="M164.4,250H0V85.6C0,38.4,38.4,0,85.6,0H250v164.4C250,211.6,211.6,250,164.4,250z"/>
<g class="st1">
	<path class="st2" d="M126,133.9c4.1,0,7.5,3.4,7.5,7.5V179c0,4.1-3.4,7.5-7.5,7.5H73.5c-4.1,0-7.5-3.4-7.5-7.5v-37.5
		c0-4.1,3.4-7.5,7.5-7.5h6.4l1.6-3.3c0.9-2.3,3.6-4.2,6-4.2h0h24.3h0c2.5,0,5.1,1.9,6,4.2l1.7,3.3L126,133.9L126,133.9z M71.4,98
		c-3-3-5.4-8.9-5.4-13.1c0-4.8,3-11.3,6.8-14.3c6.6-5.4,16.3-5.4,23.2-0.2c6.9-5.1,16.6-5.2,23.2,0.2c3.7,3.1,6.8,9.5,6.8,14.3
		c0,4.2-2.4,10.1-5.4,13.1l-18.4,18.4c-1.4,1.4-4.2,2.5-6.1,2.5c-2,0-4.7-1.1-6.1-2.5L71.4,98z M77.2,84.9c0,1.7,1,4,2.1,5.2
		L96,106.7l16.6-16.6c1.2-1.2,2.1-3.5,2.1-5.2c0-1.9-1.2-4.4-2.7-5.7c-2.8-2.3-7.3-2-10.2,0.9L96,86l-5.9-5.8
		c-1.3-1.3-3.9-2.4-5.8-2.4c0,0-0.1,0-0.1,0c-1.3,0-3.3,0.7-4.3,1.5C78.4,80.5,77.2,83,77.2,84.9z M122.2,145.2h-9.6l-3.1-6.2
		l-0.6-1.3H90.6l-0.6,1.2l-3.1,6.3h-9.7v30.1h45L122.2,145.2z M111,158.3c0,6.2-5,11.3-11.3,11.3s-11.3-5-11.3-11.3
		c0-6.2,5-11.3,11.3-11.3S111,152.1,111,158.3z M148.5,115.2c0,6.2-6.7,11.3-15,11.3s-15-5.1-15-11.3s6.7-11.3,15-11.3
		c1,0,2.7,0.2,3.8,0.4v-25c0-3.7,2.5-6.9,6-7.4l34.8-5.4c0.3,0,0.7-0.1,1-0.1c3.8,0,6.9,3.3,6.9,7.5v33.7c0,6.2-6.7,11.3-15,11.3
		c-8.3,0-15-5-15-11.3s6.7-11.3,15-11.3c1,0,2.7,0.2,3.8,0.4V78.4l-26.2,4L148.5,115.2L148.5,115.2z M186,150.8l-17.6,32.6
		c-0.9,1.7-3.1,3.1-5,3.1c-3.1,0-5.6-2.5-5.6-5.6c0-0.8,0.3-2.1,0.7-2.8l8.7-16.1h-25.6l14.9-32.3c0.8-1.9,3.1-3.5,5.2-3.5
		c3.1,0,5.6,2.5,5.6,5.6c0,0.7-0.3,1.9-0.6,2.6l-7.6,16.4H186z"/>
</g>
<text transform="matrix(1 0 0 1 337.7744 168.3219)" class="st0 st3 st4">Content-Templates</text>
</svg>
