<?xml version="1.0" encoding="utf-8"?>
<!-- Generator: Adobe Illustrator 25.4.1, SVG Export Plug-In . SVG Version: 6.00 Build 0)  -->
<svg version="1.1" id="Ebene_1" xmlns="http://www.w3.org/2000/svg" xmlns:xlink="http://www.w3.org/1999/xlink" x="0px" y="0px"
	 viewBox="0 0 1317.8 250" style="enable-background:new 0 0 1317.8 250;" xml:space="preserve">
<style type="text/css">
	.st0{fill:#00003E;}
	.st1{opacity:0.5;fill:#FFFFFF;}
	.st2{fill:#FFFFFF;}
</style>
<path class="st0" d="M164.4,250H0V85.6C0,38.4,38.4,0,85.6,0H250v164.4C250,211.6,211.6,250,164.4,250z"/>
<g>
	<path class="st1" d="M210.3,81.5v90c0,4.1-3.4,7.5-7.5,7.5H50.1c-4.1,0-7.5-3.4-7.5-7.5v-90c0-4.1,3.4-7.5,7.5-7.5h152.7
		C206.9,74,210.3,77.3,210.3,81.5z M202.8,81.5H50.1v63.8h34l18.6-24.8c1.4-1.9,4.6-1.9,6,0l11.1,14.7l16.7-22.2
		c1.4-1.9,4.6-1.9,6,0l24.2,32.3h36.2V81.5z M202.8,152.7H50.1v18.8h152.7V152.7z M88.5,100.2c0-6.2,5-11.3,11.3-11.3
		s11.3,5,11.3,11.3s-5,11.3-11.3,11.3S88.5,106.4,88.5,100.2z M112.2,145.2l2.8-3.8l-9.4-12.5l-12.2,16.3H112.2z M96,100.2
		c0,2.1,1.7,3.8,3.8,3.8s3.8-1.7,3.8-3.8s-1.7-3.8-3.8-3.8S96,98.2,96,100.2z M157.2,145.2l-17.8-23.8l-17.8,23.8H157.2z"/>
</g>
<g>
	<path class="st2" d="M178.5,81.5v90c0,4.1-3.4,7.5-7.5,7.5H81c-4.1,0-7.5-3.4-7.5-7.5v-90c0-4.1,3.4-7.5,7.5-7.5h90
		C175.1,74,178.5,77.3,178.5,81.5z M171,81.5H81v63.8h3.1l18.6-24.8c1.4-1.9,4.6-1.9,6,0l11.1,14.7l16.7-22.2c1.4-1.9,4.6-1.9,6,0
		l24.2,32.3h4.4V81.5z M171,152.7H81v18.8h90V152.7z M88.5,100.2c0-6.2,5-11.3,11.3-11.3s11.3,5,11.3,11.3s-5,11.3-11.3,11.3
		S88.5,106.4,88.5,100.2z M112.2,145.2l2.8-3.8l-9.4-12.5l-12.2,16.3H112.2z M96,100.2c0,2.1,1.7,3.8,3.8,3.8s3.8-1.7,3.8-3.8
		s-1.7-3.8-3.8-3.8S96,98.2,96,100.2z M157.2,145.2l-17.8-23.8l-17.8,23.8H157.2z"/>
</g>
<g>
	<path class="st0" d="M350.4,71.9c0-2.3,0.7-3,3-3h11.2c2.4,0,3,0.7,3,3v93.4c0,2.3-0.7,3-3,3h-11.2c-2.3,0-3-0.7-3-3V71.9z"/>
	<path class="st0" d="M408.2,165.3c0,2.3-0.6,3-3,3H395c-2.1,0-3-0.7-3-3V99c0-2.3,0.9-3,3-3h5.3c2.7,0,4.4,0.4,5.4,1.7l2.6,4V165.3
		z M415.3,97.9c3.4-2.3,7-3.4,11.9-3.4c20.3,0,27.3,14.3,27.3,34.6v36.2c0,2.3-0.7,3-3,3h-10.2c-2.3,0-3-0.7-3-3v-34.5
		c0-13.9-4.8-21.9-14.9-21.9c-3.4,0-5.7,1-8.1,2.8V97.9z M455.3,102.2c4.7-4.7,10.6-7.7,18-7.7c15.6,0,27.3,8.4,27.3,32.7v38.2
		c0,2.3-0.7,3-3,3h-10.2c-2.3,0-3-0.7-3-3v-34.5c0-15.1-5.5-21.9-14.9-21.9c-4.1,0-7.5,1.7-9.5,4.3
		C459.3,108.7,457.8,105.6,455.3,102.2z"/>
	<path class="st0" d="M559,166.1c-5.5,2.8-9.7,3.8-16.5,3.8c-12.8,0-24.8-7.8-24.8-23.7c0-15.5,12.2-22.9,27.5-22.9
		c4.4,0,8,0.6,13.8,1.7v11.2c-4.3-1.1-6.8-1.4-9.9-1.4c-10.8,0-15.3,4.8-15.3,11.4c0,5.5,4.1,11.4,13.9,11.4c4.3,0,7.7-1.4,11.4-3.7
		V166.1z M566.1,127c0-13.3-3.4-18.6-16.5-18.6c-8.1,0-15.6,1.1-20.9,2.1c-2.3,0.3-2.8-0.6-3.4-2.8l-1.7-6.8
		c-0.6-2.3-0.3-3.1,1.8-3.7c1.7-0.4,14.3-2.7,24.8-2.7c27.1,0,31.9,11.9,31.9,34.4v36.5c0,2.3-0.6,3-3,3h-8.7c-2,0-3.1-1-4.5-3V127z
		"/>
	<path class="st0" d="M647,114.2c-3.3-3.3-7.5-5.5-13.1-5.5c-11.8,0-20.3,10.2-20.3,23.4c0,12.8,8.5,23.3,20.3,23.3
		c4.8,0,9.1-1.7,13.1-5.5v14.6c-4.1,3-9.2,5.4-16.6,5.4c-19.5,0-32.8-17-32.8-37.8c0-20.2,13.3-37.6,32.8-37.6
		c7.7,0,12.1,2,16.6,4.5V114.2z M654.1,99.7c1-2.1,3-3.7,5.3-3.7h8c2.3,0,3,0.7,3,3v63.3c0,28.5-12.5,41-34.6,41
		c-15.8,0-26.4-4.4-28.7-5.3c-2-0.9-2.3-1.3-1.7-3.5l2.1-8.5c0.6-2.4,1-2.7,3.1-1.8c4.5,1.8,12.5,5,22.6,5c13.6,0,21-7.8,21-24.8
		V99.7z"/>
	<path class="st0" d="M704.8,132.8c0,13.2,9.4,23.1,21.9,23.1c5,0,12.1-1.1,19.5-5.4c2.1-1,2.8-1.6,4.3,0.3l4.1,5.1
		c1.4,1.7,1.7,2.6,0.4,4c-6.5,6.4-18.3,9.9-28.7,9.9c-21.4,0-38.2-16.9-38.2-37.6c0-19.5,14.6-35.5,33.4-37.5v13.3
		c-10.2,2.1-16.6,11.2-16.6,23.7V132.8z M712.2,126.9h32.1c-1-8.4-6-16.9-15.8-18.9V94.6c21.2,1.7,32.2,19.2,32.2,39.8
		c0,2.3-0.4,3.1-2.8,3.1h-45.7C711.4,134.2,711.4,130.1,712.2,126.9z"/>
	<path class="st0" d="M831.5,165.3c0,2.4-0.7,3-3,3h-11.2c-2.3,0-3-0.6-3-3V71.9c0-2.3,0.7-3,3-3h14.2V165.3z M838.7,129v-14.3h12.5
		c14.8,0,19.5-7,19.5-15.9c0-10.8-7.2-15.5-19.5-15.5h-12.5V68.9h13.2c16.2,0,35.4,6.8,35.4,29.8S868.6,129,851.9,129H838.7z
		 M891.1,164.5c1.7,2.6-0.1,3.8-2.6,3.8h-10.5c-2.4,0-3.8-1-5.3-3l-19.9-29.4h4.3c5.8,0,9.8-0.4,13.2-1.7L891.1,164.5z"/>
	<path class="st0" d="M919,132.8c0,13.2,9.4,23.1,21.9,23.1c5,0,12.1-1.1,19.5-5.4c2.1-1,2.8-1.6,4.3,0.3l4.1,5.1
		c1.4,1.7,1.7,2.6,0.4,4c-6.5,6.4-18.3,9.9-28.7,9.9c-21.4,0-38.2-16.9-38.2-37.6c0-19.5,14.6-35.5,33.4-37.5v13.3
		c-10.2,2.1-16.6,11.2-16.6,23.7V132.8z M926.4,126.9h32.1c-1-8.4-6-16.9-15.8-18.9V94.6c21.2,1.7,32.2,19.2,32.2,39.8
		c0,2.3-0.4,3.1-2.8,3.1h-45.7C925.5,134.2,925.5,130.1,926.4,126.9z"/>
	<path class="st0" d="M1011.8,169.6c-7.4-1.1-15.2-2.8-24.1-8.8c-2-1.4-1.7-2.3-0.7-4.3l3.1-5.4c1-2,1.7-3,4-1.3
		c4.8,3.3,10.2,6,17.8,7.1V169.6z M1018.9,157.2c8.7-0.7,12.8-4.5,12.8-9.7c0-4.7-6.2-7-17-8.4c-14.8-2-27.7-6.5-27.7-21.7
		c0-13.3,10.5-22.6,28.1-23v12.6c-9.2,0.6-12.8,4.1-12.8,9.5c0,5.5,6.1,7,17,8.5c14.8,1.8,27.7,6.5,27.7,21.6
		c0,13.3-10.9,22.4-28.1,23.1V157.2z M1022.2,94.9c6.2,1.1,12.2,2.6,20.9,7.5c2.3,1.4,1.7,2.4,0.9,4.4l-3.1,5.3c-1,2-1.8,2.8-4,1.4
		c-5.3-3.3-9.1-5.1-14.6-6V94.9z"/>
	<path class="st0" d="M1075.3,63.4c5.4,0,9.9,4.5,9.9,10.1c0,5.5-4.5,9.8-9.9,9.8c-5.5,0-9.9-4.3-9.9-9.8
		C1065.4,67.9,1069.8,63.4,1075.3,63.4z M1067.4,99c0-2.3,0.7-3,3-3h10.2c2.3,0,3,0.7,3,3v66.3c0,2.3-0.7,3-3,3h-10.2
		c-2.3,0-3-0.7-3-3V99z"/>
	<path class="st0" d="M1162.5,96c0.9,0,1.1,0.3,1.1,1.3v1.3c0,0.9-0.4,1.6-1,2.6l-45,67.2h-14.8c-1,0-1.3-0.3-1.3-1.3v-1.1
		c0-1,0.3-1.6,1-2.7l45.7-67.2H1162.5z M1130,110.2h-22.2c-2.3,0-3-0.7-3-3V99c0-2.3,0.7-3,3-3h31.8L1130,110.2z M1135.8,154.1h24.4
		c2.3,0,3,0.7,3,3v8.2c0,2.3-0.7,3-3,3h-33.9L1135.8,154.1z"/>
	<path class="st0" d="M1190.2,132.8c0,13.2,9.4,23.1,21.9,23.1c5,0,12.1-1.1,19.5-5.4c2.1-1,2.8-1.6,4.3,0.3l4.1,5.1
		c1.4,1.7,1.7,2.6,0.4,4c-6.5,6.4-18.3,9.9-28.7,9.9c-21.4,0-38.2-16.9-38.2-37.6c0-19.5,14.6-35.5,33.4-37.5v13.3
		c-10.2,2.1-16.6,11.2-16.6,23.7V132.8z M1197.6,126.9h32.1c-1-8.4-6-16.9-15.8-18.9V94.6c21.2,1.7,32.2,19.2,32.2,39.8
		c0,2.3-0.4,3.1-2.8,3.1h-45.7C1196.7,134.2,1196.7,130.1,1197.6,126.9z"/>
	<path class="st0" d="M1279.9,165.3c-0.1,2.3-0.7,3-3,3h-10.2c-2.3,0-3-0.7-3-3V99c0-2.3,0.7-3,3-3h5.1c4.4,0,5,0.9,8.1,4.4V165.3z
		 M1287,99.6c3.8-2.7,8.9-5.1,18.6-5.1c2.8,0,3.1,0.9,2.8,2.8l-1.6,10.4c-0.4,2.3-1.1,2.8-3.4,2.8c-7,0-12.1,1.8-16.5,5.5V99.6z"/>
</g>
</svg>
