<?xml version="1.0" encoding="utf-8"?>
<!-- Generator: Adobe Illustrator 25.4.1, SVG Export Plug-In . SVG Version: 6.00 Build 0)  -->
<svg version="1.1" id="Ebene_1" xmlns="http://www.w3.org/2000/svg" xmlns:xlink="http://www.w3.org/1999/xlink" x="0px" y="0px"
	 viewBox="0 0 1425.8 250" style="enable-background:new 0 0 1425.8 250;" xml:space="preserve">
<style type="text/css">
	.st0{fill:#00003E;}
	.st1{fill:#FFFFFF;}
</style>
<path class="st0" d="M164.4,250H0V85.6C0,38.4,38.4,0,85.6,0H250v164.4C250,211.6,211.6,250,164.4,250z"/>
<g>
	<path class="st1" d="M107.2,77.7v3.8c0,2.1-1.7,3.8-3.8,3.8H84.7v82.5h18.8c2.1,0,3.8,1.7,3.8,3.8v3.8c0,2.1-1.7,3.8-3.8,3.8H81
		c-4.1,0-7.5-3.4-7.5-7.5v-90c0-4.1,3.4-7.5,7.5-7.5h22.5C105.5,74,107.2,75.7,107.2,77.7z M178.5,81.5v90c0,4.1-3.4,7.5-7.5,7.5
		h-22.5c-2.1,0-3.8-1.7-3.8-3.8v-3.8c0-2.1,1.7-3.8,3.8-3.8h18.8V85.2h-18.8c-2.1,0-3.8-1.7-3.8-3.8v-3.8c0-2.1,1.7-3.8,3.8-3.8H171
		C175.1,74,178.5,77.3,178.5,81.5z"/>
</g>
<g>
	<path class="st1" d="M119.8,103.9c0-4.4,3-7.6,7.2-7.6c4.2,0,7,3.1,7.1,7.6c0,4.2-2.8,7.4-7.2,7.4
		C122.7,111.3,119.8,108.1,119.8,103.9z M119.8,146.2c0-4.4,3-7.6,7.2-7.6c4.2,0,7,3.1,7.1,7.6c0,4.2-2.8,7.4-7.2,7.4
		C122.7,153.7,119.8,150.4,119.8,146.2z"/>
</g>
<g>
	<path class="st0" d="M367.3,168.3h-14.2c-2.3,0-3-0.7-3-3V71.9c0-2.3,0.7-3,3-3h11.2c2.3,0,3,0.7,3,3V168.3z M374.6,153.7h36.8
		c2.3,0,3,0.6,3,3v8.7c0,2.3-0.7,3-3,3h-36.8V153.7z"/>
	<path class="st0" d="M457.9,169.7c-18.7-1.8-33.9-17.8-33.9-37.5c0-19.9,15.3-35.9,33.9-37.6v14.8c-10.2,1.8-17.9,11.1-17.9,22.9
		c0,12.2,8.1,21.3,17.9,23V169.7z M465,155.3c10.2-1.7,18-11.1,18-23s-8-21.3-18-22.9V94.6c19.2,2,34.1,18,34.1,37.6
		c0,19.5-14.8,35.6-34.1,37.5V155.3z"/>
	<path class="st0" d="M545,169.7c-18.7-1.8-33.9-17.8-33.9-37.5c0-19.9,15.3-35.9,33.9-37.6v14.8c-10.2,1.8-17.9,11.1-17.9,22.9
		c0,12.2,8.1,21.3,17.9,23V169.7z M552.1,155.3c10.2-1.7,18-11.1,18-23s-8-21.3-18-22.9V94.6c19.2,2,34.1,18,34.1,37.6
		c0,19.5-14.8,35.6-34.1,37.5V155.3z"/>
	<path class="st0" d="M620.2,165.3c0,2.3-0.6,3-3,3h-10.1c-2.4,0-3.1-0.7-3.1-3V66.5c0-2.3,0.7-3,3.1-3h10.1c2.4,0,3,0.7,3,3V165.3z
		 M627.3,119.5L646.6,99c1.8-2.3,2.6-3,4.5-3h14.2c2,0,2.6,1.6,1.1,3l-39.2,43.3V119.5z M642.5,136.2l25.8,29.1c2.1,2.6,0.6,3-1.3,3
		H653c-2,0-2.8-0.7-4.5-3L632,147.9L642.5,136.2z"/>
	<path class="st0" d="M720.5,170c-20.7-1.4-37.9-15.1-37.9-42.6V71.9c0-2.3,0.9-3,3.1-3h11.1c2.4,0,3,0.7,3,3v54.8
		c0,19.2,8.8,26.8,20.7,28.3V170z M727.7,155c12.4-1.3,21-9.2,21-28.3V71.9c0-2.3,0.6-3,3-3h11.1c2.4,0,3.1,0.7,3.1,3v55.5
		c0,27.8-17.8,41.2-38.2,42.6V155z"/>
	<path class="st0" d="M803.2,194.3c0,2.3-0.7,3-3,3H790c-2.3,0-3-0.7-3-3V99c0-2.3,0.7-3,3-3h5c1.7,0,3.7,0.9,5.4,2.4l2.8,3.8V194.3
		z M810.3,99c4.8-2.8,9.2-4.5,16.6-4.5c19.3,0,32.8,17.5,32.8,37.6c0,20.7-13.5,37.8-32.8,37.8c-6.7,0-12.2-2.1-16.6-5.4v-14.6
		c3.3,3.1,7.1,5.5,13.1,5.5c11.8,0,20.2-10.5,20.2-23.3c0-13.2-8.4-23.4-20.2-23.4c-5.1,0-9.5,2-13.1,5.5V99z"/>
	<path class="st0" d="M942.3,169.6c-12.8-1-22.3-4-32-10.5c-2.1-1.3-1.8-2.3-0.9-4.3l4.4-7.1c1.1-2,2-2.7,4.1-1.3
		c8.5,5.4,16.2,7.4,24.3,8.2V169.6z M944,82.6c-13.5,1.3-16.9,8.7-16.9,15.3c0,9.5,10.1,11.6,24.6,13.5c17.3,2.1,33.9,7.5,33.9,28.5
		c0,15.3-12.2,29.8-36.1,30v-15.1c11.5-0.4,19.5-4.4,19.5-14.2c0-10.2-9.5-12.9-25.4-15.1c-15.5-2-33.1-7.4-33.1-27.1
		c0-12.4,8.9-29.8,33.5-31.1V82.6z M951.1,67.4c11.8,0.9,20.9,4.5,31,10.8c2,1.1,1.7,2.3,0.7,4.3l-4.3,7c-1.1,2-2.1,2.8-4.1,1.4
		c-8.7-5.7-15.5-8-23.3-8.4V67.4z"/>
	<path class="st0" d="M1024.2,194.3c-1.1,2.4-2,3-3.8,3h-11.6c-2.1,0-2.7-0.7-1.6-3l14.6-32.5L993.4,99c-1-2.3-0.6-3,1.6-3h11.6
		c2,0,2.7,0.7,4,3l28.3,62.9L1024.2,194.3z M1034.6,134.7L1050,99c1.3-2.3,2-3,4-3h11.6c2.1,0,2.6,0.7,1.6,3l-24.4,54.1
		L1034.6,134.7z"/>
	<path class="st0" d="M1099.6,169.6c-7.4-1.1-15.2-2.8-24.1-8.8c-2-1.4-1.7-2.3-0.7-4.3l3.1-5.4c1-2,1.7-3,4-1.3
		c4.8,3.3,10.2,6,17.8,7.1V169.6z M1106.7,157.2c8.7-0.7,12.8-4.5,12.8-9.7c0-4.7-6.2-7-17-8.4c-14.8-2-27.7-6.5-27.7-21.7
		c0-13.3,10.5-22.6,28.1-23v12.6c-9.2,0.6-12.8,4.1-12.8,9.5c0,5.5,6.1,7,17,8.5c14.8,1.8,27.7,6.5,27.7,21.6
		c0,13.3-10.9,22.4-28.1,23.1V157.2z M1110,94.9c6.2,1.1,12.2,2.6,20.9,7.5c2.3,1.4,1.7,2.4,0.9,4.4l-3.1,5.3c-1,2-1.8,2.8-4,1.4
		c-5.3-3.3-9.1-5.1-14.6-6V94.9z"/>
	<path class="st0" d="M1149.6,109c-2.3,0-3-0.7-3-3v-7c0-2.3,0.7-3,3-3h5.3V82.1c0-2.3,0.6-3,3-3h10.1c2.3,0,3,0.7,3,3V96h21.9
		c2.3,0,3,0.7,3,3.1v6.8c0,2.3-0.7,3-3,3H1149.6z M1170.9,116.2v21.3c0,12.8,4.4,17.9,13.1,17.9c3.1,0,5.5-0.3,8.5-1.7
		c2.7-1.4,3.3-1.3,3.8,1.7l1.3,7.1c0.4,2.1,0.3,2.8-1.6,3.8c-5.7,3.5-11.9,3.5-13.8,3.5c-18.7,0-27.4-11.8-27.4-31.4v-22.3H1170.9z"
		/>
	<path class="st0" d="M1226.1,132.8c0,13.2,9.4,23.1,21.9,23.1c5,0,12.1-1.1,19.5-5.4c2.1-1,2.8-1.6,4.3,0.3l4.1,5.1
		c1.4,1.7,1.7,2.6,0.4,4c-6.5,6.4-18.3,9.9-28.7,9.9c-21.4,0-38.2-16.9-38.2-37.6c0-19.5,14.6-35.5,33.4-37.5v13.3
		c-10.2,2.1-16.6,11.2-16.6,23.7V132.8z M1233.5,126.9h32.1c-1-8.4-6-16.9-15.8-18.9V94.6c21.2,1.7,32.2,19.2,32.2,39.8
		c0,2.3-0.4,3.1-2.8,3.1h-45.7C1232.6,134.2,1232.6,130.1,1233.5,126.9z"/>
	<path class="st0" d="M1315.3,165.3c0,2.3-0.6,3-3,3h-10.2c-2.1,0-3-0.7-3-3V99c0-2.3,0.9-3,3-3h5.3c2.7,0,4.4,0.4,5.4,1.7l2.6,4
		V165.3z M1322.4,97.9c3.4-2.3,7-3.4,11.9-3.4c20.3,0,27.3,14.3,27.3,34.6v36.2c0,2.3-0.7,3-3,3h-10.2c-2.3,0-3-0.7-3-3v-34.5
		c0-13.9-4.8-21.9-14.9-21.9c-3.4,0-5.7,1-8.1,2.8V97.9z M1362.4,102.2c4.7-4.7,10.6-7.7,18-7.7c15.6,0,27.3,8.4,27.3,32.7v38.2
		c0,2.3-0.7,3-3,3h-10.2c-2.3,0-3-0.7-3-3v-34.5c0-15.1-5.5-21.9-14.9-21.9c-4.1,0-7.5,1.7-9.5,4.3
		C1366.4,108.7,1364.8,105.6,1362.4,102.2z"/>
</g>
</svg>
