<?xml version="1.0" encoding="utf-8"?>
<!-- Generator: Adobe Illustrator 25.4.1, SVG Export Plug-In . SVG Version: 6.00 Build 0)  -->
<svg version="1.1" id="Ebene_1" xmlns="http://www.w3.org/2000/svg" xmlns:xlink="http://www.w3.org/1999/xlink" x="0px" y="0px"
	 viewBox="0 0 1321.7 250" style="enable-background:new 0 0 1321.7 250;" xml:space="preserve">
<style type="text/css">
	.st0{fill:#00003E;}
	.st1{fill:#FFFFFF;}
</style>
<path class="st0" d="M164.4,250H0V85.6C0,38.4,38.4,0,85.6,0H250v164.4C250,211.6,211.6,250,164.4,250z"/>
<g>
	<path class="st0" d="M378.2,169.6c-12.8-1-22.3-4-31.9-10.5c-2.1-1.3-1.8-2.3-0.9-4.3l4.4-7.1c1.1-2,2-2.7,4.1-1.3
		c8.5,5.4,16.2,7.4,24.3,8.2V169.6z M379.9,82.6c-13.5,1.3-16.9,8.7-16.9,15.3c0,9.5,10.1,11.6,24.6,13.5
		c17.3,2.1,33.9,7.5,33.9,28.5c0,15.3-12.2,29.8-36.1,30v-15.1c11.5-0.4,19.5-4.4,19.5-14.2c0-10.2-9.5-12.9-25.4-15.1
		c-15.5-2-33.1-7.4-33.1-27.1c0-12.4,8.9-29.8,33.5-31.1V82.6z M387,67.4c11.8,0.9,20.9,4.5,31,10.8c2,1.1,1.7,2.3,0.7,4.3l-4.3,7
		c-1.1,2-2.1,2.8-4.1,1.4c-8.7-5.7-15.5-8-23.3-8.4V67.4z"/>
	<path class="st0" d="M450.9,132.8c0,13.2,9.4,23.1,21.9,23.1c5,0,12.1-1.1,19.5-5.4c2.1-1,2.8-1.6,4.3,0.3l4.1,5.1
		c1.4,1.7,1.7,2.6,0.4,4c-6.5,6.4-18.3,9.9-28.7,9.9c-21.4,0-38.2-16.9-38.2-37.6c0-19.5,14.6-35.5,33.4-37.5v13.3
		c-10.2,2.1-16.6,11.2-16.6,23.7V132.8z M458.3,126.9h32.1c-1-8.4-6-16.9-15.8-18.9V94.6c21.2,1.7,32.2,19.2,32.2,39.8
		c0,2.3-0.4,3.1-2.8,3.1h-45.7C457.5,134.2,457.5,130.1,458.3,126.9z"/>
	<path class="st0" d="M520.7,109c-2.3,0-3-0.7-3-3v-7c0-2.3,0.7-3,3-3h5.3V82.1c0-2.3,0.6-3,3-3H539c2.3,0,3,0.7,3,3V96h21.9
		c2.3,0,3,0.7,3,3.1v6.8c0,2.3-0.7,3-3,3H520.7z M542,116.2v21.3c0,12.8,4.4,17.9,13.1,17.9c3.1,0,5.5-0.3,8.5-1.7
		c2.7-1.4,3.3-1.3,3.8,1.7l1.3,7.1c0.4,2.1,0.3,2.8-1.6,3.8c-5.7,3.5-11.9,3.5-13.8,3.5c-18.7,0-27.4-11.8-27.4-31.4v-22.3H542z"/>
	<path class="st0" d="M583.4,109c-2.3,0-3-0.7-3-3v-7c0-2.3,0.7-3,3-3h5.3V82.1c0-2.3,0.6-3,3-3h10.1c2.3,0,3,0.7,3,3V96h21.9
		c2.3,0,3,0.7,3,3.1v6.8c0,2.3-0.7,3-3,3H583.4z M604.7,116.2v21.3c0,12.8,4.4,17.9,13.1,17.9c3.1,0,5.5-0.3,8.5-1.7
		c2.7-1.4,3.3-1.3,3.8,1.7l1.3,7.1c0.4,2.1,0.3,2.8-1.6,3.8c-5.7,3.5-11.9,3.5-13.8,3.5c-18.7,0-27.4-11.8-27.4-31.4v-22.3H604.7z"
		/>
	<path class="st0" d="M659.4,63.4c5.4,0,9.9,4.5,9.9,10.1c0,5.5-4.5,9.8-9.9,9.8c-5.5,0-9.9-4.3-9.9-9.8
		C649.5,67.9,653.9,63.4,659.4,63.4z M651.4,99c0-2.3,0.7-3,3-3h10.2c2.3,0,3,0.7,3,3v66.3c0,2.3-0.7,3-3,3h-10.2c-2.3,0-3-0.7-3-3
		V99z"/>
	<path class="st0" d="M710.5,165.3c0,2.3-0.7,3-3,3h-10.2c-2.3,0-3-0.7-3-3V99c0-2.3,0.7-3,3-3h5.1c2.7,0,4.4,0.4,5.5,1.7l2.6,4
		V165.3z M717.6,98.3c3.4-2.6,7.7-3.8,12.9-3.8c15.6,0,27.5,8.4,27.5,32.8v38.1c0,2.3-0.7,3-3,3h-10.2c-2.3,0-3-0.7-3-3v-34.5
		c0-15.1-5.5-21.9-15.5-21.9c-4.1,0-6.7,1.4-8.8,3.3V98.3z"/>
	<path class="st0" d="M823,114.2c-3.3-3.3-7.5-5.5-13.1-5.5c-11.8,0-20.3,10.2-20.3,23.4c0,12.8,8.5,23.3,20.3,23.3
		c4.8,0,9.1-1.7,13.1-5.5v14.6c-4.1,3-9.2,5.4-16.6,5.4c-19.5,0-32.8-17-32.8-37.8c0-20.2,13.3-37.6,32.8-37.6
		c7.7,0,12.1,2,16.6,4.5V114.2z M830.1,99.7c1-2.1,3-3.7,5.3-3.7h8c2.3,0,3,0.7,3,3v63.3c0,28.5-12.5,41-34.6,41
		c-15.8,0-26.4-4.4-28.7-5.3c-2-0.9-2.3-1.3-1.7-3.5l2.1-8.5c0.6-2.4,1-2.7,3.1-1.8c4.5,1.8,12.5,5,22.6,5c13.6,0,21-7.8,21-24.8
		V99.7z"/>
	<path class="st0" d="M889.6,169.6c-7.4-1.1-15.2-2.8-24.1-8.8c-2-1.4-1.7-2.3-0.7-4.3l3.1-5.4c1-2,1.7-3,4-1.3
		c4.8,3.3,10.2,6,17.8,7.1V169.6z M896.7,157.2c8.7-0.7,12.8-4.5,12.8-9.7c0-4.7-6.2-7-17-8.4c-14.8-2-27.7-6.5-27.7-21.7
		c0-13.3,10.5-22.6,28.1-23v12.6c-9.2,0.6-12.8,4.1-12.8,9.5c0,5.5,6.1,7,17,8.5c14.8,1.8,27.7,6.5,27.7,21.6
		c0,13.3-10.9,22.4-28.1,23.1V157.2z M899.9,94.9c6.2,1.1,12.2,2.6,20.9,7.5c2.3,1.4,1.7,2.4,0.9,4.4l-3.1,5.3c-1,2-1.8,2.8-4,1.4
		c-5.3-3.3-9.1-5.1-14.6-6V94.9z"/>
	<path class="st0" d="M970.9,169.6c-12.8-1-22.3-4-32-10.5c-2.1-1.3-1.8-2.3-0.9-4.3l4.4-7.1c1.1-2,2-2.7,4.1-1.3
		c8.5,5.4,16.2,7.4,24.3,8.2V169.6z M972.6,82.6c-13.5,1.3-16.9,8.7-16.9,15.3c0,9.5,10.1,11.6,24.6,13.5
		c17.3,2.1,33.9,7.5,33.9,28.5c0,15.3-12.2,29.8-36.1,30v-15.1c11.5-0.4,19.5-4.4,19.5-14.2c0-10.2-9.5-12.9-25.4-15.1
		c-15.5-2-33.1-7.4-33.1-27.1c0-12.4,8.9-29.8,33.5-31.1V82.6z M979.7,67.4c11.8,0.9,20.9,4.5,31,10.8c2,1.1,1.7,2.3,0.7,4.3l-4.3,7
		c-1.1,2-2.1,2.8-4.1,1.4c-8.7-5.7-15.5-8-23.3-8.4V67.4z"/>
	<path class="st0" d="M1030.4,109c-2.3,0-3-0.7-3-3v-7c0-2.3,0.7-3,3-3h5.3V82.1c0-2.3,0.6-3,3-3h10.1c2.3,0,3,0.7,3,3V96h21.9
		c2.3,0,3,0.7,3,3.1v6.8c0,2.3-0.7,3-3,3H1030.4z M1051.7,116.2v21.3c0,12.8,4.4,17.9,13.1,17.9c3.1,0,5.5-0.3,8.5-1.7
		c2.7-1.4,3.3-1.3,3.8,1.7l1.3,7.1c0.4,2.1,0.3,2.8-1.6,3.8c-5.7,3.5-11.9,3.5-13.8,3.5c-18.7,0-27.4-11.8-27.4-31.4v-22.3H1051.7z"
		/>
	<path class="st0" d="M1132.7,166.1c-5.5,2.8-9.7,3.8-16.5,3.8c-12.8,0-24.8-7.8-24.8-23.7c0-15.5,12.2-22.9,27.5-22.9
		c4.4,0,8,0.6,13.8,1.7v11.2c-4.3-1.1-6.8-1.4-9.9-1.4c-10.8,0-15.3,4.8-15.3,11.4c0,5.5,4.1,11.4,13.9,11.4c4.3,0,7.7-1.4,11.4-3.7
		V166.1z M1139.8,127c0-13.3-3.4-18.6-16.5-18.6c-8.1,0-15.6,1.1-20.9,2.1c-2.3,0.3-2.8-0.6-3.4-2.8l-1.7-6.8
		c-0.6-2.3-0.3-3.1,1.8-3.7c1.7-0.4,14.3-2.7,24.8-2.7c27.1,0,32,11.9,32,34.4v36.5c0,2.3-0.6,3-3,3h-8.7c-2,0-3.1-1-4.5-3V127z"/>
	<path class="st0" d="M1205.4,109.3c-9.8,1.7-18,10.6-18,23c0,12.1,7.8,21.2,18,22.9v14.6c-19.7-1.8-34.1-18.5-34.1-37.5
		c0-19.2,14.3-35.8,34.1-37.6V109.3z M1212.3,94.6c8.4,0.9,16,4,22.7,10.5c1.3,1.3,1,2-0.4,3.7l-5.3,5.7c-1.6,1.7-2.6,2.1-4.3,0.6
		c-4.3-4-8.7-5.3-12.8-6V94.6z M1212.3,155.3c5.1-0.9,8.8-2.4,12.8-6c1.8-1.6,2.7-1.1,4.3,0.6l5.3,5.7c1.4,1.7,1.7,2.4,0.4,3.7
		c-6.8,6.5-13.9,9.5-22.7,10.5V155.3z"/>
	<path class="st0" d="M1268.9,165.3c0,2.3-0.6,3-3,3h-10.1c-2.4,0-3.1-0.7-3.1-3V66.5c0-2.3,0.7-3,3.1-3h10.1c2.4,0,3,0.7,3,3V165.3
		z M1276,119.5l19.3-20.4c1.8-2.3,2.6-3,4.5-3h14.2c2,0,2.6,1.6,1.1,3l-39.2,43.3V119.5z M1291.1,136.2l25.8,29.1
		c2.1,2.6,0.6,3-1.3,3h-14.1c-2,0-2.8-0.7-4.5-3l-16.5-17.5L1291.1,136.2z"/>
</g>
<path class="st1" d="M206.1,161.2c0,3.1-1.8,5.9-4.6,7.1L131,198.6c-1.6,0.7-3.3,1-5,1c-1.7,0-3.4-0.3-5-1l-70.5-30.3
	c-2.8-1.2-4.6-4-4.6-7.1s1.8-5.9,4.6-7.1l31.2-13.4l-31.2-13.4c-2.8-1.2-4.6-4-4.6-7.1c0-3.1,1.8-5.9,4.6-7.1l65.9-28.3
	c2.7-1.1,5.7,0.1,6.8,2.7c1.1,2.6-0.1,5.6-2.7,6.7l-60.5,26l65.1,28c0.5,0.2,1.1,0.2,1.7,0l70.5-30.3c2.6-1.1,5.7,0.1,6.8,2.7
	c1.1,2.6-0.1,5.6-2.7,6.7l-31.2,13.4l31.2,13.4C204.3,155.4,206.1,158.2,206.1,161.2z M191.9,161.2l-34.7-14.9L131,157.6
	c-1.6,0.7-3.3,1-5,1s-3.4-0.3-5-1l-26.3-11.3L60,161.2l65.1,28c0.5,0.2,1.1,0.2,1.7,0L191.9,161.2z M205.6,49.3v5
	c0,1.4-1.1,2.5-2.5,2.5h-26.8v2.5c0,1.4-1.1,2.5-2.5,2.5h-5c-1.4,0-2.5-1.1-2.5-2.5v-2.5h-27.2c-1.4,0-2.5-1.1-2.5-2.5v-5
	c0-1.4,1.1-2.5,2.5-2.5h27.2v-2.5c0-1.4,1.1-2.5,2.5-2.5h5c1.4,0,2.5,1.1,2.5,2.5v2.5h26.8C204.5,46.8,205.6,47.9,205.6,49.3z
	 M205.9,74.2v5c0,1.4-1.1,2.5-2.5,2.5h-7.3v2.5c0,1.4-1.1,2.5-2.5,2.5h-5c-1.4,0-2.5-1.1-2.5-2.5v-2.5H139c-1.4,0-2.5-1.1-2.5-2.5
	v-5c0-1.4,1.1-2.5,2.5-2.5h47.1v-2.5c0-1.4,1.1-2.5,2.5-2.5h5c1.4,0,2.5,1.1,2.5,2.5v2.5h7.3C204.8,71.7,205.9,72.9,205.9,74.2z
	 M205.6,99.3v5c0,1.4-1.1,2.5-2.5,2.5h-46.5v2.5c0,1.4-1.1,2.5-2.5,2.5h-5c-1.4,0-2.5-1.1-2.5-2.5v-2.5h-7.1c-1.4,0-2.5-1.1-2.5-2.5
	v-5c0-1.4,1.1-2.5,2.5-2.5h7.1v-2.5c0-1.4,1.1-2.5,2.5-2.5h5c1.4,0,2.5,1.1,2.5,2.5v2.5h46.5C204.4,96.7,205.6,97.9,205.6,99.3z"/>
</svg>
