<?xml version="1.0" encoding="utf-8"?>
<!-- Generator: Adobe Illustrator 26.0.1, SVG Export Plug-In . SVG Version: 6.00 Build 0)  -->
<svg version="1.1" id="Ebene_1" xmlns="http://www.w3.org/2000/svg" xmlns:xlink="http://www.w3.org/1999/xlink" x="0px" y="0px"
	 viewBox="0 0 980.3 250" style="enable-background:new 0 0 980.3 250;" xml:space="preserve">
<style type="text/css">
	.st0{fill:#00003E;}
	.st1{fill:#FFFFFF;}
</style>
<path class="st0" d="M367.5,171.2c0,2.3-0.7,3-3,3h-11.3c-2.3,0-3-0.7-3-3V77c0-2.3,0.7-3,3-3h14.3V171.2z M374.8,74h42.7
	c2.4,0,3.1,0.7,3.1,3v8.7c0,2.3-0.7,3.2-3.1,3.2h-42.7V74z M374.8,116.4h41.4c2.4,0,3,0.7,3,3v8.7c0,2.3-0.7,3-3,3h-41.4V116.4z"/>
<path class="st0" d="M464.5,175.6c-20.9-2.1-36.1-20.8-34-41.7c1.8-18,16-32.2,34-34v14.9c-10.3,1.9-18,11.2-18,23
	c0,12.3,8.2,21.5,18,23.2V175.6z M471.6,161c10.3-1.7,18.2-11.2,18.2-23.2s-8-21.5-18.2-23V99.9c20.9,1.8,36.4,20.2,34.7,41.1
	c-1.6,18.5-16.2,33.1-34.7,34.7V161z"/>
<path class="st0" d="M540.9,171.2c-0.1,2.3-0.7,3-3,3h-10.3c-2.3,0-3-0.7-3-3v-66.9c0-2.3,0.7-3,3-3h5.2c4.4,0,5,0.9,8.2,4.4V171.2z
	 M548.1,104.9c3.9-2.7,9-5.2,18.8-5.2c2.9,0,3.2,0.9,2.9,2.9l-1.6,10.4c-0.4,2.3-1.1,2.9-3.4,2.9c-7,0-12.2,1.9-16.6,5.6V104.9z"/>
<path class="st0" d="M600,171.2c0,2.3-0.6,3-3,3h-10.3c-2.2,0-3-0.7-3-3v-66.9c0-2.3,0.9-3,3-3h5.3c2.7,0,4.4,0.4,5.4,1.7l2.6,4
	L600,171.2z M607.2,103.2c3.5-2.4,7.7-3.6,12-3.4c20.5,0,27.5,14.5,27.5,34.9v36.5c0,2.3-0.7,3-3,3h-10.3c-2.3,0-3-0.7-3-3v-34.8
	c0-14-4.9-22-15-22c-3-0.1-5.9,1-8.2,2.9L607.2,103.2z M647.5,107.5c4.7-5,11.3-7.8,18.2-7.7c15.8,0,27.5,8.4,27.5,32.9v38.5
	c0,2.3-0.7,3-3,3h-10.3c-2.3,0-3-0.7-3-3v-34.8c0-15.2-5.6-22-15-22c-3.7-0.1-7.2,1.5-9.6,4.3C651.7,114.6,650.1,110.7,647.5,107.5
	L647.5,107.5z"/>
<path class="st0" d="M752.9,171.9c-3.4,2.6-7.7,3.9-13,3.9c-15.7,0-27.8-8.4-27.8-33.1v-38.4c0-2.3,0.7-3,3-3h10.3c2.3,0,3,0.7,3,3
	v34.9c0,15,5.6,21.9,15.6,21.9c3.3,0.1,6.5-1.1,8.9-3.3L752.9,171.9z M760.1,104.3c0-2.3,0.7-3,3-3h10.3c2.3,0,3,0.7,3,3v66.9
	c0,2.3-0.7,3-3,3h-5.2c-2.7,0-4.4-0.4-5.6-1.7l-2.6-4L760.1,104.3z"/>
<path class="st0" d="M801.6,71.5c0-2.3,0.7-3,3-3h10.3c2.4,0,3,0.7,3,3v99.6c0,2.3-0.7,3-3,3h-10.3c-2.3,0-3-0.7-3-3V71.5z"/>
<path class="st0" d="M880,171.9c-5.6,2.9-9.7,3.9-16.6,3.9c-12.9,0-25-7.9-25-23.9c0-15.6,12.3-23.1,27.8-23.1c4.4,0,8,0.6,13.9,1.7
	v11.3c-3.2-1-6.6-1.4-10-1.4c-10.9,0-15.5,4.9-15.5,11.4c0,5.6,4.2,11.5,14,11.5c4.3,0,7.7-1.4,11.5-3.7L880,171.9z M887.2,132.5
	c0-13.5-3.4-18.8-16.6-18.8c-7.1,0.1-14.1,0.8-21,2.2c-2.3,0.3-2.9-0.6-3.4-2.9l-1.7-6.9c-0.6-2.3-0.3-3.1,1.9-3.7
	c8.3-1.6,16.6-2.5,25-2.7c27.3,0,32.2,12,32.2,34.7v36.8c0,2.3-0.6,3-3,3h-8.7c-2,0-3.2-1-4.6-3L887.2,132.5z"/>
<path class="st0" d="M944.8,175.5c-7.5-1.1-15.3-2.9-24.3-8.9c-2-1.4-1.7-2.3-0.7-4.3l3.2-5.4c1-2,1.7-3,4-1.3
	c5.3,3.8,11.5,6.2,17.9,7.1V175.5z M951.9,163c8.7-0.7,12.9-4.6,12.9-9.7c0-4.7-6.3-7-17.2-8.4c-14.9-2-27.9-6.6-27.9-21.9
	c0-13.4,10.6-22.8,28.3-23.2v12.8c-9.3,0.6-12.9,4.2-12.9,9.6s6.2,7,17.2,8.6c14.9,1.9,27.9,6.6,27.9,21.8c0,13.4-11,22.6-28.3,23.3
	L951.9,163z M955.2,100.2c7.4,1.2,14.5,3.7,21,7.6c2.3,1.4,1.7,2.4,0.8,4.4l-3.2,5.3c-1,2-1.9,2.9-4,1.4c-5.3-3.3-9.2-5.2-14.7-6
	L955.2,100.2z"/>
<path class="st0" d="M164.4,250H0V85.6C0,38.3,38.3,0,85.6,0H250v164.4C250,211.7,211.7,250,164.4,250z"/>
<path class="st1" d="M95.8,171.7L95.8,171.7c-3.9-0.2-7.5-2.5-9.2-6.1c-1.6-3.7-0.8-7.9,1.9-10.8l27.2-28.5L88.6,97.9
	c-2.8-2.9-3.5-7.2-1.9-10.8c1.7-3.5,5.3-5.8,9.2-6h58c4.2,0,7.6,3.4,7.6,7.5c0,0,0,0,0,0v11.3c0,2.1-1.7,3.8-3.8,3.8h-3.8
	c-2.1,0-3.8-1.7-3.8-3.8v-7.6H99l27.5,28.8c2.8,2.9,2.8,7.5,0,10.4L99,160.4h51.1v-7.6c0-2.1,1.7-3.8,3.8-3.8h3.8
	c2.1,0,3.8,1.7,3.8,3.8v11.3c0,4.2-3.4,7.6-7.6,7.6L95.8,171.7z"/>
</svg>
