<?xml version="1.0" encoding="utf-8"?>
<!-- Generator: Adobe Illustrator 26.0.0, SVG Export Plug-In . SVG Version: 6.00 Build 0)  -->
<svg version="1.1" id="Ebene_1" xmlns="http://www.w3.org/2000/svg" xmlns:xlink="http://www.w3.org/1999/xlink" x="0px" y="0px"
	 viewBox="0 0 763.5 250" style="enable-background:new 0 0 763.5 250;" xml:space="preserve">
<style type="text/css">
	.st0{fill:#00003E;}
	.st1{fill:#FFFFFF;}
</style>
<path class="st0" d="M164.4,250H0V85.6C0,38.4,38.4,0,85.6,0H250v164.4C250,211.6,211.6,250,164.4,250z"/>
<g>
	<path class="st1" d="M177.5,74v105h-105V74H177.5z M129.7,122.2h-9.9v33.5c0,4.9-2.1,6.2-5.3,6.2c-3.4,0-4.8-2.3-6.4-5.1l-8,4.9
		c2.3,4.9,6.9,9,14.8,9c8.7,0,14.7-4.7,14.7-14.9v-33.6H129.7z M169.3,157c0-8.3-4.7-11.9-13.1-15.5l-2.5-1.1c-4.2-1.9-6.1-3-6.1-6
		c0-2.4,1.8-4.2,4.7-4.2c2.8,0,4.7,1.2,6.4,4.2l7.7-4.9c-3.2-5.7-7.7-7.9-14-7.9c-8.8,0-14.4,5.6-14.4,13c0,8,4.7,11.9,11.8,14.9
		l2.5,1.1c4.5,2,7.2,3.2,7.2,6.6c0,2.8-2.6,4.9-6.7,4.9c-4.9,0-7.6-2.6-9.7-6l-8,4.6c2.9,5.7,8.8,10.1,18,10.1
		C162.4,170.8,169.3,165.9,169.3,157z"/>
</g>
<g>
	<path class="st0" d="M393.7,89.4v40.3c0,31.5-19.9,40.3-46,40.5c-3.1,0-3.4-0.7-3.7-3l-1.1-9.1c-0.1-2.3,1-3,3.6-3
		c18.2,0,30-4.7,30-25.4V89.4H393.7z M356.8,82.1c-2.3,0-3-0.7-3-3v-7.2c0-2.3,0.7-3,3-3h33.8c2.4,0,3.1,0.7,3.1,3v10.2H356.8z"/>
	<path class="st0" d="M443.7,169.6c-12.8-1-22.3-4-31.9-10.5c-2.1-1.3-1.8-2.3-0.9-4.3l4.4-7.1c1.1-2,2-2.7,4.1-1.3
		c8.5,5.4,16.2,7.4,24.3,8.2V169.6z M445.4,82.6c-13.5,1.3-16.9,8.7-16.9,15.3c0,9.5,10.1,11.6,24.6,13.5
		c17.3,2.1,33.9,7.5,33.9,28.5c0,15.3-12.2,29.8-36.1,30v-15.1c11.5-0.4,19.5-4.4,19.5-14.2c0-10.2-9.5-12.9-25.4-15.1
		c-15.5-2-33.1-7.4-33.1-27.1c0-12.4,8.9-29.8,33.5-31.1V82.6z M452.5,67.4c11.8,0.9,20.9,4.5,31,10.8c2,1.1,1.7,2.3,0.7,4.3l-4.3,7
		c-1.1,2-2.1,2.8-4.1,1.4c-8.7-5.7-15.5-8-23.3-8.4L452.5,67.4L452.5,67.4z"/>
	<path class="st0" d="M595.2,124l-12.9-28.1H582l-31.5,69.4c-1.3,2.3-1.8,3-4,3h-13.2c-1.7,0-2.6-1.6-1.8-3l48-95.7
		c1-1.7,1.4-2.8,2.4-2.8h0.4c1.1,0,1.4,1.1,2.6,2.8l27,54.4C611.9,124,595.2,124,595.2,124z M615.5,131.3l17.3,34.1
		c0.7,1.4-0.1,3-2,3h-13.1c-2.1,0-2.8-0.7-4-3l-9.4-19.5h-37.1l6.7-14.6L615.5,131.3L615.5,131.3z"/>
	<path class="st0" d="M663.5,165.3c-0.1,2.3-0.7,3-3,3h-11.2c-2.4,0-3-0.7-3-3V71.9c0-2.4,0.7-3,3-3h14.2V165.3z M670.8,114.6h12.4
		c14.8,0,19.6-7,19.6-15.9c0-8.7-4.8-15.5-19.6-15.5h-12.4V68.9h13.1c16.6,0,35.5,6.8,35.5,29.8s-19,30.3-35.6,30.3h-13.1
		L670.8,114.6L670.8,114.6z"/>
	<path class="st0" d="M734.8,71.9c0-2.3,0.7-3,3-3H749c2.4,0,3,0.7,3,3v93.4c0,2.3-0.7,3-3,3h-11.2c-2.3,0-3-0.7-3-3V71.9z"/>
</g>
</svg>
