<svg xmlns="http://www.w3.org/2000/svg" viewBox="0 0 822.13 250"><defs><style>.a{fill:#00003e;}.b{fill:#fff;}</style></defs><path class="a" d="M164.44,250H0V85.56A85.65,85.65,0,0,1,85.56,0H250V164.44A85.65,85.65,0,0,1,164.44,250Z"/><path class="b" d="M184.11,126.49A58.13,58.13,0,1,1,94.92,77.34a2.8,2.8,0,0,1,4,1l2.77,4.9a2.81,2.81,0,0,1-.92,3.73,46.9,46.9,0,1,0,50.49,0,2.8,2.8,0,0,1-.91-3.73l2.76-4.9a2.82,2.82,0,0,1,4-1A58.14,58.14,0,0,1,184.11,126.49ZM128.79,134h-5.63a2.82,2.82,0,0,1-2.81-2.81V69.3a2.83,2.83,0,0,1,2.81-2.82h5.63a2.82,2.82,0,0,1,2.81,2.82v61.88A2.81,2.81,0,0,1,128.79,134Z"/><path class="a" d="M346.86,109c-2.27,0-3-.71-3-3V99c0-2.28.71-3,3-3h5.26V82.13c0-2.27.56-3,3-3h10.08c2.27,0,3,.71,3,3V96H390c2.27,0,3,.71,3,3.13V106c0,2.27-.71,3-3,3Zm21.3,7.24v21.3c0,12.78,4.4,17.89,13.07,17.89a18,18,0,0,0,8.52-1.7c2.69-1.42,3.26-1.28,3.83,1.7l1.28,7.1c.42,2.13.28,2.84-1.56,3.83a26.12,26.12,0,0,1-13.78,3.55c-18.74,0-27.4-11.78-27.4-31.38V116.21Z"/><path class="a" d="M450.38,166.05c-3.41,2.56-7.67,3.83-12.92,3.83-15.62,0-27.55-8.37-27.55-32.8V99c0-2.28.71-3,3-3h10.22c2.28,0,3,.71,3,3v34.64c0,14.91,5.53,21.73,15.47,21.73a12.48,12.48,0,0,0,8.81-3.27Zm7.1-67c0-2.28.71-3,3-3h10.22c2.28,0,3,.71,3,3v66.31c0,2.27-.71,3-3,3h-5.11c-2.7,0-4.4-.42-5.54-1.7l-2.55-4Z"/><path class="a" d="M514.56,165.34c-.14,2.27-.71,3-3,3H501.36c-2.28,0-3-.71-3-3V99c0-2.28.71-3,3-3h5.11c4.4,0,5,.86,8.09,4.41Zm7.1-65.75c3.83-2.69,9-5.11,18.6-5.11,2.84,0,3.13.85,2.84,2.84l-1.56,10.37c-.43,2.27-1.14,2.84-3.41,2.84-7,0-12.07,1.84-16.47,5.54Z"/><path class="a" d="M574.06,165.34c0,2.27-.71,3-3,3H560.85c-2.27,0-3-.71-3-3V99c0-2.28.71-3,3-3H566c2.7,0,4.41.43,5.54,1.71l2.56,4Zm7.1-67c3.4-2.56,7.67-3.84,12.92-3.84,15.62,0,27.55,8.38,27.55,32.8v38.06c0,2.27-.71,3-3,3H608.42c-2.27,0-3-.71-3-3V130.83c0-15.05-5.54-21.86-15.48-21.86a12.49,12.49,0,0,0-8.8,3.26Z"/><path class="a" d="M684.81,170c-25.84-1.85-47.28-24.14-47.28-51.41a51.44,51.44,0,0,1,47.28-51.4v15c-18.6,2.42-30,19.45-30,36.35,0,17.61,12.21,34.22,30,36.35ZM692.06,155c17.89-2,30.1-18.6,30.1-36.35S710,84.26,692.06,82.27v-15a51.57,51.57,0,0,1,0,102.81Z"/><path class="a" d="M774.56,165.34c0,2.27-.71,3-3,3H761.35c-2.27,0-3-.71-3-3V99c0-2.28.71-3,3-3h5.12c2.69,0,4.4.43,5.53,1.71l2.56,4Zm7.1-67c3.41-2.56,7.67-3.84,12.92-3.84,15.62,0,27.55,8.38,27.55,32.8v38.06c0,2.27-.71,3-3,3H808.92c-2.27,0-3-.71-3-3V130.83c0-15.05-5.54-21.86-15.48-21.86a12.49,12.49,0,0,0-8.8,3.26Z"/></svg>