<?xml version="1.0" encoding="utf-8"?>
<!-- Generator: Adobe Illustrator 26.0.0, SVG Export Plug-In . SVG Version: 6.00 Build 0)  -->
<svg version="1.1" id="Ebene_1" xmlns="http://www.w3.org/2000/svg" xmlns:xlink="http://www.w3.org/1999/xlink" x="0px" y="0px"
	 viewBox="0 0 1465.1 250" style="enable-background:new 0 0 1465.1 250;" xml:space="preserve">
<style type="text/css">
	.st0{fill:#00003E;}
	.st1{fill:#FFFFFF;}
</style>
<path class="st0" d="M164.4,250H0V85.6C0,38.4,38.4,0,85.6,0H250v164.4C250,211.6,211.6,250,164.4,250z"/>
<g>
	<path class="st0" d="M368,121.7l-5,43.6c-0.3,2.4-0.7,3-3,3h-11.2c-2.3,0-3.3-0.9-3-3l8.2-66.7L368,121.7z M358.1,67.1h2
		c0.6,0,1.1,0.3,1.7,1.3l45.9,76.7l45.9-76.7c0.6-1,1.1-1.3,1.7-1.3h2l2.6,19.9l-48.1,80.2c-1.3,1.8-2.1,3-3.3,3h-1.6
		c-1.1,0-2-1.1-3.1-3L355.5,87L358.1,67.1z M461.2,98.6l8.2,66.7c0.3,2.1-0.7,3-3,3h-11.2c-2.3,0-2.8-0.6-3-3l-5-43.6L461.2,98.6z"
		/>
	<path class="st0" d="M527.5,166.1c-3.4,2.6-7.7,3.8-12.9,3.8c-15.6,0-27.5-8.4-27.5-32.8V99c0-2.3,0.7-3,3-3h10.2c2.3,0,3,0.7,3,3
		v34.6c0,14.9,5.5,21.7,15.5,21.7c4.1,0,6.7-1.4,8.8-3.3L527.5,166.1L527.5,166.1z M534.6,99c0-2.3,0.7-3,3-3h10.2c2.3,0,3,0.7,3,3
		v66.3c0,2.3-0.7,3-3,3h-5.1c-2.7,0-4.4-0.4-5.5-1.7l-2.6-4L534.6,99L534.6,99z"/>
	<path class="st0" d="M575.8,66.5c0-2.3,0.7-3,3-3H589c2.4,0,3,0.7,3,3v98.8c0,2.3-0.7,3-3,3h-10.2c-2.3,0-3-0.7-3-3V66.5z"/>
	<path class="st0" d="M613.3,109c-2.3,0-3-0.7-3-3v-7c0-2.3,0.7-3,3-3h5.3V82.1c0-2.3,0.6-3,3-3h10.1c2.3,0,3,0.7,3,3V96h21.9
		c2.3,0,3,0.7,3,3.1v6.8c0,2.3-0.7,3-3,3L613.3,109L613.3,109z M634.6,116.2v21.3c0,12.8,4.4,17.9,13.1,17.9c3.1,0,5.5-0.3,8.5-1.7
		c2.7-1.4,3.3-1.3,3.8,1.7l1.3,7.1c0.4,2.1,0.3,2.8-1.6,3.8c-5.7,3.5-11.9,3.5-13.8,3.5c-18.7,0-27.4-11.8-27.4-31.4v-22.3
		L634.6,116.2L634.6,116.2z"/>
	<path class="st0" d="M689.2,63.4c5.4,0,9.9,4.5,9.9,10.1c0,5.5-4.5,9.8-9.9,9.8c-5.5,0-9.9-4.3-9.9-9.8
		C679.3,67.9,683.7,63.4,689.2,63.4z M681.3,99c0-2.3,0.7-3,3-3h10.2c2.3,0,3,0.7,3,3v66.3c0,2.3-0.7,3-3,3h-10.2c-2.3,0-3-0.7-3-3
		V99z"/>
	<path class="st0" d="M722.7,134.4c-2.4,0-3.1-0.7-3.1-3v-6.7c0-2.4,0.7-3,3.1-3h39.2c2.3,0,3,0.6,3,3v6.7c0,2.3-0.7,3-3,3H722.7z"
		/>
	<path class="st0" d="M802.2,168.3H788c-2.3,0-3-0.7-3-3V71.9c0-2.3,0.7-3,3-3h11.2c2.3,0,3,0.7,3,3V168.3z M809.5,153.7h36.8
		c2.3,0,3,0.6,3,3v8.7c0,2.3-0.7,3-3,3h-36.8V153.7z"/>
	<path class="st0" d="M901.8,166.1c-5.5,2.8-9.7,3.8-16.5,3.8c-12.8,0-24.8-7.8-24.8-23.7c0-15.5,12.2-22.9,27.5-22.9
		c4.4,0,8,0.6,13.8,1.7v11.2c-4.3-1.1-6.8-1.4-9.9-1.4c-10.8,0-15.3,4.8-15.3,11.4c0,5.5,4.1,11.4,13.9,11.4c4.3,0,7.7-1.4,11.4-3.7
		v12.2H901.8z M908.9,127c0-13.3-3.4-18.6-16.5-18.6c-8.1,0-15.6,1.1-20.9,2.1c-2.3,0.3-2.8-0.6-3.4-2.8l-1.7-6.8
		c-0.6-2.3-0.3-3.1,1.8-3.7c1.7-0.4,14.3-2.7,24.8-2.7c27.1,0,32,11.9,32,34.4v36.5c0,2.3-0.6,3-3,3h-8.7c-2,0-3.1-1-4.5-3V127
		H908.9z"/>
	<path class="st0" d="M962.9,165.3c0,2.3-0.7,3-3,3h-10.2c-2.3,0-3-0.7-3-3V99c0-2.3,0.7-3,3-3h5.1c2.7,0,4.4,0.4,5.5,1.7l2.6,4
		L962.9,165.3L962.9,165.3z M969.9,98.3c3.4-2.6,7.7-3.8,12.9-3.8c15.6,0,27.5,8.4,27.5,32.8v38.1c0,2.3-0.7,3-3,3h-10.2
		c-2.3,0-3-0.7-3-3v-34.5c0-15.1-5.5-21.9-15.5-21.9c-4.1,0-6.7,1.4-8.8,3.3L969.9,98.3L969.9,98.3z"/>
	<path class="st0" d="M1075.3,114.2c-3.3-3.3-7.5-5.5-13.1-5.5c-11.8,0-20.3,10.2-20.3,23.4c0,12.8,8.5,23.3,20.3,23.3
		c4.8,0,9.1-1.7,13.1-5.5v14.6c-4.1,3-9.2,5.4-16.6,5.4c-19.5,0-32.8-17-32.8-37.8c0-20.2,13.3-37.6,32.8-37.6
		c7.7,0,12.1,2,16.6,4.5V114.2z M1082.4,99.7c1-2.1,3-3.7,5.3-3.7h8c2.3,0,3,0.7,3,3v63.3c0,28.5-12.5,41-34.6,41
		c-15.8,0-26.4-4.4-28.7-5.3c-2-0.9-2.3-1.3-1.7-3.5l2.1-8.5c0.6-2.4,1-2.7,3.1-1.8c4.5,1.8,12.5,5,22.6,5c13.6,0,21-7.8,21-24.8
		V99.7H1082.4z"/>
	<path class="st0" d="M1160.1,166.1c-3.4,2.6-7.7,3.8-12.9,3.8c-15.6,0-27.5-8.4-27.5-32.8V99c0-2.3,0.7-3,3-3h10.2c2.3,0,3,0.7,3,3
		v34.6c0,14.9,5.5,21.7,15.5,21.7c4.1,0,6.7-1.4,8.8-3.3L1160.1,166.1L1160.1,166.1z M1167.2,99c0-2.3,0.7-3,3-3h10.2
		c2.3,0,3,0.7,3,3v66.3c0,2.3-0.7,3-3,3h-5.1c-2.7,0-4.4-0.4-5.5-1.7l-2.6-4V99z"/>
	<path class="st0" d="M1244.7,166.1c-5.5,2.8-9.7,3.8-16.5,3.8c-12.8,0-24.8-7.8-24.8-23.7c0-15.5,12.2-22.9,27.5-22.9
		c4.4,0,8,0.6,13.8,1.7v11.2c-4.3-1.1-6.8-1.4-9.9-1.4c-10.8,0-15.3,4.8-15.3,11.4c0,5.5,4.1,11.4,13.9,11.4c4.3,0,7.7-1.4,11.4-3.7
		L1244.7,166.1L1244.7,166.1z M1251.8,127c0-13.3-3.4-18.6-16.5-18.6c-8.1,0-15.6,1.1-20.9,2.1c-2.3,0.3-2.8-0.6-3.4-2.8l-1.7-6.8
		c-0.6-2.3-0.3-3.1,1.8-3.7c1.7-0.4,14.3-2.7,24.8-2.7c27.1,0,32,11.9,32,34.4v36.5c0,2.3-0.6,3-3,3h-8.7c-2,0-3.1-1-4.5-3
		L1251.8,127L1251.8,127z"/>
	<path class="st0" d="M1332.8,114.2c-3.3-3.3-7.5-5.5-13.1-5.5c-11.8,0-20.3,10.2-20.3,23.4c0,12.8,8.5,23.3,20.3,23.3
		c4.8,0,9.1-1.7,13.1-5.5v14.6c-4.1,3-9.2,5.4-16.6,5.4c-19.5,0-32.8-17-32.8-37.8c0-20.2,13.3-37.6,32.8-37.6
		c7.7,0,12.1,2,16.6,4.5V114.2z M1339.9,99.7c1-2.1,3-3.7,5.3-3.7h8c2.3,0,3,0.7,3,3v63.3c0,28.5-12.5,41-34.6,41
		c-15.8,0-26.4-4.4-28.7-5.3c-2-0.9-2.3-1.3-1.7-3.5l2.1-8.5c0.6-2.4,1-2.7,3.1-1.8c4.5,1.8,12.5,5,22.6,5c13.6,0,21-7.8,21-24.8
		V99.7H1339.9z"/>
	<path class="st0" d="M1390.5,132.8c0,13.2,9.4,23.1,21.9,23.1c5,0,12.1-1.1,19.5-5.4c2.1-1,2.8-1.6,4.3,0.3l4.1,5.1
		c1.4,1.7,1.7,2.6,0.4,4c-6.5,6.4-18.3,9.9-28.7,9.9c-21.4,0-38.2-16.9-38.2-37.6c0-19.5,14.6-35.5,33.4-37.5V108
		c-10.2,2.1-16.6,11.2-16.6,23.7v1.1H1390.5z M1397.9,126.9h32.1c-1-8.4-6-16.9-15.8-18.9V94.6c21.2,1.7,32.2,19.2,32.2,39.8
		c0,2.3-0.4,3.1-2.8,3.1h-45.7C1397.1,134.2,1397.1,130.1,1397.9,126.9z"/>
</g>
<g>
	<path class="st1" d="M130.3,136.2l-3.9,10l-15-15l-24.3,24l-6.8-6.8l24.7-24.3c-6.1-6.7-10.9-14-14.5-22h9.8
		c3.2,6.1,6.9,11.4,11.1,16.1c7-7.7,12.1-16.3,15.4-25.9H72.7v-9.8h34v-9.5h9.5v9.5h34v9.8H136c-3.9,12.1-9.9,22.6-17.9,31.5
		l-0.2,0.2L130.3,136.2z M157.5,111.7l21.8,58.1h-9.8l-5.4-14.5h-22.9l-5.4,14.5H126l21.8-58.1H157.5z M144.8,145.8h15.7l-7.9-21.1
		L144.8,145.8z"/>
</g>
</svg>
