<?xml version="1.0" encoding="utf-8"?>
<!-- Generator: Adobe Illustrator 25.4.1, SVG Export Plug-In . SVG Version: 6.00 Build 0)  -->
<svg version="1.1" id="Ebene_1" xmlns="http://www.w3.org/2000/svg" xmlns:xlink="http://www.w3.org/1999/xlink" x="0px" y="0px"
	 viewBox="0 0 923 250" style="enable-background:new 0 0 923 250;" xml:space="preserve">
<style type="text/css">
	.st0{fill:#00003E;}
	.st1{fill:#FFFFFF;}
</style>
<path class="st0" d="M164.4,250H0V85.6C0,38.4,38.4,0,85.6,0H250v164.4C250,211.6,211.6,250,164.4,250z"/>
<g>
	<path class="st1" d="M111,77.7v3.8c0,2.1-1.7,3.8-3.8,3.8H86.6c-1,0-1.9,0.8-1.9,1.9v18.2c0,4.7-2.7,11.3-6,14.6l-6.6,6.6l6.6,6.6
		c3.3,3.3,6,9.9,6,14.6v18.2c0,1,0.8,1.9,1.9,1.9h20.6c2.1,0,3.8,1.7,3.8,3.8v3.8c0,2.1-1.7,3.8-3.8,3.8H86.6
		c-7.2,0-13.1-5.9-13.1-13.1v-18.2c0-2.1-1.2-5.1-2.8-6.6l-10.6-10.6c-0.9-0.9-1.7-2.7-1.7-4c0-1.3,0.7-3.1,1.7-4l10.6-10.6
		c1.5-1.5,2.7-4.5,2.7-6.6V87.1c0-7.2,5.9-13.1,13.1-13.1h20.6C109.3,74,111,75.7,111,77.7z M193.5,126.5c0,1.3-0.7,3.1-1.7,4
		l-10.6,10.6c-1.5,1.5-2.7,4.5-2.7,6.6v18.2c0,7.2-5.9,13.1-13.1,13.1h-20.6c-2.1,0-3.8-1.7-3.8-3.8v-3.8c0-2.1,1.7-3.8,3.8-3.8
		h20.6c1,0,1.9-0.8,1.9-1.9v-18.2v0c0-4.7,2.7-11.3,6-14.6l6.6-6.6l-6.6-6.6c-3.3-3.3-6-9.9-6-14.6v0V87.1c0-1-0.8-1.9-1.9-1.9
		h-20.6c-2.1,0-3.8-1.7-3.8-3.8v-3.8c0-2.1,1.7-3.8,3.8-3.8h20.6c7.2,0,13.1,5.9,13.1,13.1v18.2c0,2.1,1.2,5.1,2.8,6.6l10.6,10.6
		C192.8,123.4,193.5,125.2,193.5,126.5z"/>
</g>
<g>
	<path class="st0" d="M383.5,167.6c-0.9,1.8-1.3,2.8-2.1,2.8h-2.6c-0.7,0-1.1-0.9-2.1-2.8l-37.3-95.7c-1-2.3-0.6-3,1.6-3h13.6
		c2.3,0,3.3,0.7,4,3l29.4,83.4L383.5,167.6z M435.8,167.6c-0.9,1.8-1.4,2.8-2.3,2.8h-1.3c-0.7,0-1.3-1-2.1-2.8l-23.9-67.7
		l-14.6,44.3l-7.2-20.4l18.5-53.7c0.9-2,1.3-3,2.4-3h2c1.1,0,1.6,1,2.4,3l31,85.5L435.8,167.6z M436.2,122.3l17.8-50.4
		c0.7-2.3,1.7-3,4-3h13.6c2.1,0,2.6,0.7,1.6,3l-28.7,73.3L436.2,122.3z"/>
	<path class="st0" d="M491,132.8c0,13.2,9.4,23.1,21.9,23.1c5,0,12.1-1.1,19.5-5.4c2.1-1,2.8-1.6,4.3,0.3l4.1,5.1
		c1.4,1.7,1.7,2.6,0.4,4c-6.5,6.4-18.3,9.9-28.7,9.9c-21.4,0-38.2-16.9-38.2-37.6c0-19.5,14.6-35.5,33.4-37.5v13.3
		c-10.2,2.1-16.6,11.2-16.6,23.7V132.8z M498.4,126.9h32.1c-1-8.4-6-16.9-15.8-18.9V94.6c21.2,1.7,32.2,19.2,32.2,39.8
		c0,2.3-0.4,3.1-2.8,3.1h-45.7C497.5,134.2,497.5,130.1,498.4,126.9z"/>
	<path class="st0" d="M580,162.1l-2.8,3.8c-1.7,1.7-3.7,2.4-5.4,2.4h-5c-2.3,0-3-0.7-3-3V66.5c0-2.3,0.7-3,3-3H577c2.3,0,3,0.7,3,3
		V162.1z M587.1,150.1c3.5,3.5,8,5.5,13.1,5.5c11.8,0,20.2-10.2,20.2-23.4c0-12.8-8.4-23.3-20.2-23.3c-6,0-9.8,2.4-13.1,5.5V99.9
		c4.4-3.3,9.9-5.4,16.6-5.4c19.3,0,32.8,17,32.8,37.8c0,20.3-13.5,37.6-32.8,37.6c-7.4,0-11.8-1.7-16.6-4.5V150.1z"/>
	<path class="st0" d="M743.7,124l-12.9-28.1h-0.3L699,165.3c-1.3,2.3-1.8,3-4,3h-13.2c-1.7,0-2.6-1.6-1.8-3l48-95.7
		c1-1.7,1.4-2.8,2.4-2.8h0.4c1.1,0,1.4,1.1,2.6,2.8l27,54.4H743.7z M764.1,131.3l17.3,34.1c0.7,1.4-0.1,3-2,3h-13.1
		c-2.1,0-2.8-0.7-4-3l-9.4-19.5h-37.1l6.7-14.6H764.1z"/>
	<path class="st0" d="M812,165.3c-0.1,2.3-0.7,3-3,3h-11.2c-2.4,0-3-0.7-3-3V71.9c0-2.4,0.7-3,3-3H812V165.3z M819.3,114.6h12.4
		c14.8,0,19.6-7,19.6-15.9c0-8.7-4.8-15.5-19.6-15.5h-12.4V68.9h13.1c16.6,0,35.5,6.8,35.5,29.8S849,129,832.4,129h-13.1V114.6z"/>
	<path class="st0" d="M883.3,71.9c0-2.3,0.7-3,3-3h11.2c2.4,0,3,0.7,3,3v93.4c0,2.3-0.7,3-3,3h-11.2c-2.3,0-3-0.7-3-3V71.9z"/>
</g>
</svg>
