<?xml version="1.0" encoding="utf-8"?>
<!-- Generator: Adobe Illustrator 26.0.1, SVG Export Plug-In . SVG Version: 6.00 Build 0)  -->
<svg version="1.1" id="Ebene_1" xmlns="http://www.w3.org/2000/svg" xmlns:xlink="http://www.w3.org/1999/xlink" x="0px" y="0px"
	 viewBox="0 0 861.3 250" style="enable-background:new 0 0 861.3 250;" xml:space="preserve">
<style type="text/css">
	.st0{fill:#00003E;}
	.st1{fill:#FFFFFF;}
</style>
<path class="st0" d="M164.4,250H0V85.6C0,38.4,38.4,0,85.6,0H250v164.4C250,211.6,211.6,250,164.4,250z"/>
<g>
	<path class="st1" d="M163.5,113.6c3.4,0,6.4,1.2,8.8,3.6c2.4,2.4,3.6,5.4,3.6,8.8c0,3.4-1.2,6.4-3.6,8.8c-2.4,2.4-5.4,3.6-8.8,3.6
		c-5.6,0-9.5-2.5-11.5-7.5h-14.5c-2,5-5.9,7.5-11.5,7.5s-9.5-2.5-11.5-7.5H100c-2,5-5.9,7.5-11.5,7.5c-3.4,0-6.4-1.2-8.8-3.6
		c-2.4-2.4-3.6-5.4-3.6-8.8c0-3.4,1.2-6.4,3.6-8.8c2.4-2.4,5.4-3.6,8.8-3.6c5.6,0,9.5,2.5,11.5,7.5h14.5c2-5,5.9-7.5,11.5-7.5
		s9.5,2.5,11.5,7.5H152C154,116.1,157.9,113.6,163.5,113.6z"/>
</g>
<g>
	<path class="st0" d="M390.5,165.3c0,2.3-0.7,3-3.1,3h-11.1c-2.4,0-3-0.7-3-3V84.3h-31.1c-2.4,0-3-0.7-3-3v-9.4c0-2.3,0.7-3,3-3
		h48.3V165.3z M397.6,68.9h23.9c2.4,0,3,0.7,3,3v9.4c0,2.4-0.7,3-3,3h-23.9V68.9z"/>
	<path class="st0" d="M454.1,169.7c-18.7-1.8-33.9-17.8-33.9-37.5c0-19.9,15.3-35.9,33.9-37.6v14.8c-10.2,1.8-17.9,11.1-17.9,22.9
		c0,12.2,8.1,21.3,17.9,23V169.7z M461.2,155.3c10.2-1.7,18-11.1,18-23s-8-21.3-18-22.9V94.6c19.2,2,34.1,18,34.1,37.6
		c0,19.5-14.8,35.6-34.1,37.5V155.3z"/>
	<path class="st0" d="M541.1,169.7c-18.7-1.8-33.9-17.8-33.9-37.5c0-19.9,15.3-35.9,33.9-37.6v14.8c-10.2,1.8-17.9,11.1-17.9,22.9
		c0,12.2,8.1,21.3,17.9,23V169.7z M548.2,155.3c10.2-1.7,18-11.1,18-23s-8-21.3-18-22.9V94.6c19.2,2,34.1,18,34.1,37.6
		c0,19.5-14.8,35.6-34.1,37.5V155.3z"/>
	<path class="st0" d="M601,66.5c0-2.3,0.7-3,3-3h10.2c2.4,0,3,0.7,3,3v98.8c0,2.3-0.7,3-3,3H604c-2.3,0-3-0.7-3-3V66.5z"/>
	<path class="st0" d="M657.7,162.1l-2.8,3.8c-1.7,1.7-3.7,2.4-5.4,2.4h-5c-2.3,0-3-0.7-3-3V66.5c0-2.3,0.7-3,3-3h10.2
		c2.3,0,3,0.7,3,3V162.1z M664.8,150.1c3.5,3.5,8,5.5,13.1,5.5c11.8,0,20.2-10.2,20.2-23.4c0-12.8-8.4-23.3-20.2-23.3
		c-6,0-9.8,2.4-13.1,5.5V99.9c4.4-3.3,9.9-5.4,16.6-5.4c19.3,0,32.8,17,32.8,37.8c0,20.3-13.5,37.6-32.8,37.6
		c-7.4,0-11.8-1.7-16.6-4.5V150.1z"/>
	<path class="st0" d="M769.3,166.1c-5.5,2.8-9.7,3.8-16.5,3.8c-12.8,0-24.8-7.8-24.8-23.7c0-15.5,12.2-22.9,27.5-22.9
		c4.4,0,8,0.6,13.8,1.7v11.2c-4.3-1.1-6.8-1.4-9.9-1.4c-10.8,0-15.3,4.8-15.3,11.4c0,5.5,4.1,11.4,13.9,11.4c4.3,0,7.7-1.4,11.4-3.7
		V166.1z M776.4,127c0-13.3-3.4-18.6-16.5-18.6c-8.1,0-15.6,1.1-20.9,2.1c-2.3,0.3-2.8-0.6-3.4-2.8l-1.7-6.8
		c-0.6-2.3-0.3-3.1,1.8-3.7c1.7-0.4,14.3-2.7,24.8-2.7c27.1,0,32,11.9,32,34.4v36.5c0,2.3-0.6,3-3,3H781c-2,0-3.1-1-4.5-3V127z"/>
	<path class="st0" d="M830.4,165.3c-0.1,2.3-0.7,3-3,3h-10.2c-2.3,0-3-0.7-3-3V99c0-2.3,0.7-3,3-3h5.1c4.4,0,5,0.9,8.1,4.4V165.3z
		 M837.5,99.6c3.8-2.7,8.9-5.1,18.6-5.1c2.8,0,3.1,0.9,2.8,2.8l-1.6,10.4c-0.4,2.3-1.1,2.8-3.4,2.8c-7,0-12.1,1.8-16.5,5.5V99.6z"/>
</g>
</svg>
